<svg width="24" height="24" viewBox="0 0 24 24" fill="none" xmlns="http://www.w3.org/2000/svg">
<g clip-path="url(#clip0)">
<path d="M12 0C11.5104 0 11.0408 0.194505 10.6946 0.540726C10.3483 0.886947 10.1538 1.35652 10.1538 1.84615V11.0769C10.1538 11.5666 10.3483 12.0361 10.6946 12.3824C11.0408 12.7286 11.5104 12.9231 12 12.9231C12.4896 12.9231 12.9592 12.7286 13.3054 12.3824C13.6516 12.0361 13.8462 11.5666 13.8462 11.0769V1.84615C13.8462 1.35652 13.6516 0.886947 13.3054 0.540726C12.9592 0.194505 12.4896 0 12 0V0ZM5.39446 2.39446C5.12815 2.4281 4.87736 2.53842 4.67261 2.712C3.26871 3.81876 2.13435 5.22975 1.35501 6.83863C0.575675 8.44751 0.171701 10.2123 0.173537 12C0.173537 18.5151 5.48308 23.8274 12 23.8274C18.5169 23.8274 23.8274 18.5151 23.8274 12C23.8274 8.24031 22.0717 4.87662 19.3274 2.71108C19.0405 2.48156 18.6741 2.37543 18.3089 2.41602C17.9438 2.45662 17.6097 2.64061 17.3802 2.92754C17.1506 3.21446 17.0445 3.58081 17.0851 3.94598C17.1257 4.31116 17.3097 4.64526 17.5966 4.87477C18.6761 5.72223 19.5487 6.80409 20.1484 8.03852C20.7481 9.27295 21.0592 10.6276 21.0581 12C21.0611 13.1904 20.8288 14.3696 20.3746 15.4699C19.9204 16.5702 19.2533 17.5699 18.4116 18.4116C17.5699 19.2533 16.5702 19.9204 15.4699 20.3746C14.3696 20.8288 13.1904 21.0611 12 21.0582C10.8096 21.0611 9.63044 20.8288 8.53014 20.3746C7.42983 19.9204 6.43011 19.2533 5.5884 18.4116C4.74669 17.5699 4.07958 16.5702 3.6254 15.4699C3.17122 14.3696 2.93892 13.1904 2.94184 12C2.94184 9.10338 4.29969 6.53538 6.40338 4.87477C6.64784 4.69116 6.82464 4.4318 6.90623 4.13716C6.98781 3.84251 6.96959 3.52915 6.85439 3.24596C6.73919 2.96276 6.5335 2.72565 6.26941 2.57162C6.00532 2.41759 5.69767 2.3553 5.39446 2.39446Z" fill="#1B3F82"/>
</g>
<defs>
<clipPath id="clip0">
<rect width="24" height="24" fill="white"/>
</clipPath>
</defs>
</svg>
